<!DOCTYPE svg PUBLIC "-//W3C//DTD SVG 1.1//EN" "http://www.w3.org/Graphics/SVG/1.1/DTD/svg11.dtd">
<!-- Uploaded to: SVG Repo, www.svgrepo.com, Transformed by: SVG Repo Mixer Tools -->
<svg height="800px" width="800px" version="1.1" id="Layer_1" xmlns="http://www.w3.org/2000/svg" xmlns:xlink="http://www.w3.org/1999/xlink" viewBox="0 0 512 512" xml:space="preserve" fill="#000000">
<g id="SVGRepo_bgCarrier" stroke-width="0"/>
<g id="SVGRepo_tracerCarrier" stroke-linecap="round" stroke-linejoin="round"/>
<g id="SVGRepo_iconCarrier"> <polygon style="fill:#EEEEEE;" points="405.787,449.362 405.787,117.106 330.542,62.638 373.106,449.362 "/> <polygon style="fill:#FFFFFF;" points="373.106,449.362 373.106,117.106 296.851,8.17 51.745,8.17 51.745,449.362 "/> <polygon style="fill:#DCDCDC;" points="405.787,117.106 296.851,8.17 296.851,117.106 "/> <g> <path style="fill:#B9B9B9;" d="M337.702,193.362H119.83c-4.512,0-8.17-3.658-8.17-8.17s3.658-8.17,8.17-8.17h217.872 c4.512,0,8.17,3.658,8.17,8.17S342.214,193.362,337.702,193.362z"/> <path style="fill:#B9B9B9;" d="M337.702,236.936H119.83c-4.512,0-8.17-3.658-8.17-8.17c0-4.512,3.658-8.17,8.17-8.17h217.872 c4.512,0,8.17,3.658,8.17,8.17C345.872,233.278,342.214,236.936,337.702,236.936z"/> <path style="fill:#B9B9B9;" d="M228.766,280.511H119.83c-4.512,0-8.17-3.658-8.17-8.17c0-4.512,3.658-8.17,8.17-8.17h108.936 c4.512,0,8.17,3.658,8.17,8.17C236.936,276.853,233.278,280.511,228.766,280.511z"/> </g> <path style="fill:#3c8ec8;" d="M351.319,285.957V503.83c60.165,0,108.936-48.771,108.936-108.936S411.485,285.957,351.319,285.957z"/> <path style="fill:#4baadc;" d="M351.319,285.957c42.115,0,76.255,48.771,76.255,108.936S393.434,503.83,351.319,503.83 c-60.165,0-108.936-48.771-108.936-108.936S291.154,285.957,351.319,285.957z"/> <path style="fill:#FFFFFF;" d="M405.787,378.553H367.66v-38.128c0-9.024-7.316-16.34-16.34-16.34c-9.024,0-16.34,7.316-16.34,16.34 v38.128h-38.128c-9.024,0-16.34,7.316-16.34,16.34c0,9.024,7.316,16.34,16.34,16.34h38.128v38.128c0,9.024,7.316,16.34,16.34,16.34 c9.024,0,16.34-7.316,16.34-16.34v-38.128h38.128c9.024,0,16.34-7.316,16.34-16.34C422.128,385.869,414.811,378.553,405.787,378.553 z"/> <path d="M220.602,441.191H59.915V16.34c37.32,0,191.422,0,228.766,0v100.766c0,4.512,3.658,8.17,8.17,8.17h100.766v138.9 c0,4.512,3.658,8.17,8.17,8.17c4.512,0,8.17-3.658,8.17-8.17v-147.07c0-2.167-0.861-4.245-2.393-5.777L302.628,2.393 C301.096,0.861,299.018,0,296.851,0H54.497c-4.096,0-5.476,0-7.655,1.634c-2.058,1.544-3.268,3.964-3.268,6.536v441.191 c0,4.512,3.658,8.17,8.17,8.17h168.858c4.512,0,8.17-3.658,8.17-8.17C228.772,444.85,225.114,441.191,220.602,441.191z M305.021,27.895l81.041,81.041h-81.041V27.895z"/> <path d="M351.319,277.787c-64.573,0-117.106,52.533-117.106,117.106S286.746,512,351.319,512s117.106-52.533,117.106-117.106 S415.892,277.787,351.319,277.787z M351.319,495.66c-55.563,0-100.766-45.203-100.766-100.766s45.203-100.766,100.766-100.766 s100.766,45.203,100.766,100.766S406.882,495.66,351.319,495.66z"/> <path d="M405.787,370.383H375.83v-29.957c0-13.515-10.995-24.511-24.511-24.511c-13.516,0-24.511,10.996-24.511,24.511v29.957 h-29.957c-13.516,0-24.511,10.996-24.511,24.511c0,13.515,10.995,24.511,24.511,24.511h29.957v29.957 c0,13.515,10.995,24.511,24.511,24.511c13.516,0,24.511-10.996,24.511-24.511v-29.957h29.957c13.516,0,24.511-10.996,24.511-24.511 C430.298,381.379,419.303,370.383,405.787,370.383z M405.787,403.064H367.66c-4.512,0-8.17,3.658-8.17,8.17v38.128 c0,4.505-3.665,8.17-8.17,8.17c-4.506,0-8.17-3.666-8.17-8.17v-38.128c0-4.512-3.658-8.17-8.17-8.17h-38.128 c-4.506,0-8.17-3.666-8.17-8.17c0-4.505,3.665-8.17,8.17-8.17h38.128c4.512,0,8.17-3.658,8.17-8.17v-38.128 c0-4.505,3.665-8.17,8.17-8.17c4.506,0,8.17,3.666,8.17,8.17v38.128c0,4.512,3.658,8.17,8.17,8.17h38.128 c4.506,0,8.17,3.666,8.17,8.17C413.957,399.398,410.293,403.064,405.787,403.064z"/> </g>
</svg>