<?xml version="1.0" encoding="UTF-8" standalone="no"?>
<!-- Uploaded to: SVG Repo, www.svgrepo.com, Generator: SVG Repo Mixer Tools -->
<svg width="800px" height="800px" viewBox="0 0 64 64" version="1.1" xmlns="http://www.w3.org/2000/svg" xmlns:xlink="http://www.w3.org/1999/xlink">
    
    <title>com-keyboard</title>
    <desc>Created with Sketch.</desc>
    <defs>

</defs>
    <g id="General" stroke="none" stroke-width="1" fill="none" fill-rule="evenodd">
        <g id="SLICES-64px" transform="translate(-270.000000, -300.000000)">

</g>
        <g id="ICONS" transform="translate(-265.000000, -295.000000)">
            <g id="com-keyboard" transform="translate(270.000000, 300.000000)">
                <polygon id="Fill-234" fill="#FFFFFF" points="0 54 52 54 52 26 0 26">

</polygon>
                <polygon id="Fill-235" fill="#4BAADC" points="4 50 8 50 8 46 4 46">

</polygon>
                <polygon id="Fill-236" fill="#4BAADC" points="12 50 40 50 40 46 12 46">

</polygon>
                <polygon id="Fill-237" fill="#4BAADC" points="4 42 8 42 8 38 4 38">

</polygon>
                <polygon id="Fill-238" fill="#4BAADC" points="4 34 8 34 8 30 4 30">

</polygon>
                <polygon id="Fill-239" fill="#4BAADC" points="12 42 16 42 16 38 12 38">

</polygon>
                <polygon id="Fill-240" fill="#4BAADC" points="12 34 16 34 16 30 12 30">

</polygon>
                <polygon id="Fill-241" fill="#4BAADC" points="20 42 24 42 24 38 20 38">

</polygon>
                <polygon id="Fill-242" fill="#4BAADC" points="20 34 24 34 24 30 20 30">

</polygon>
                <polygon id="Fill-243" fill="#4BAADC" points="28 42 32 42 32 38 28 38">

</polygon>
                <polygon id="Fill-244" fill="#4BAADC" points="28 34 32 34 32 30 28 30">

</polygon>
                <polygon id="Fill-245" fill="#4BAADC" points="36 42 40 42 40 38 36 38">

</polygon>
                <polygon id="Fill-246" fill="#4BAADC" points="36 34 40 34 40 30 36 30">

</polygon>
                <polygon id="Fill-247" fill="#4BAADC" points="44 42 48 42 48 38 44 38">

</polygon>
                <polygon id="Fill-248" fill="#4BAADC" points="44 50 48 50 48 46 44 46">

</polygon>
                <polygon id="Fill-249" fill="#4BAADC" points="44 34 48 34 48 30 44 30">

</polygon>
                <path d="M14,0 C14,3.313 16.687,6 20,6 L38,6 C41.313,6 44,8.687 44,12 C44,15.313 41.313,18 38,18 L32,18 C28.687,18 26,20.687 26,24 L26,26" id="Stroke-250" stroke="#4BAADC" stroke-width="2" stroke-linecap="round" stroke-linejoin="round">

</path>
                <polygon id="Stroke-251" stroke="#1E69A0" stroke-width="2" stroke-linecap="round" stroke-linejoin="round" points="0 54 52 54 52 26 0 26">

</polygon>
                <polygon id="Stroke-252" stroke="#1E69A0" stroke-width="2" stroke-linecap="round" stroke-linejoin="round" points="4 50 8 50 8 46 4 46">

</polygon>
                <polygon id="Stroke-253" stroke="#1E69A0" stroke-width="2" stroke-linecap="round" stroke-linejoin="round" points="12 50 40 50 40 46 12 46">

</polygon>
                <polygon id="Stroke-254" stroke="#1E69A0" stroke-width="2" stroke-linecap="round" stroke-linejoin="round" points="4 42 8 42 8 38 4 38">

</polygon>
                <polygon id="Stroke-255" stroke="#1E69A0" stroke-width="2" stroke-linecap="round" stroke-linejoin="round" points="4 34 8 34 8 30 4 30">

</polygon>
                <polygon id="Stroke-256" stroke="#1E69A0" stroke-width="2" stroke-linecap="round" stroke-linejoin="round" points="12 42 16 42 16 38 12 38">

</polygon>
                <polygon id="Stroke-257" stroke="#1E69A0" stroke-width="2" stroke-linecap="round" stroke-linejoin="round" points="12 34 16 34 16 30 12 30">

</polygon>
                <polygon id="Stroke-258" stroke="#1E69A0" stroke-width="2" stroke-linecap="round" stroke-linejoin="round" points="20 42 24 42 24 38 20 38">

</polygon>
                <polygon id="Stroke-259" stroke="#1E69A0" stroke-width="2" stroke-linecap="round" stroke-linejoin="round" points="20 34 24 34 24 30 20 30">

</polygon>
                <polygon id="Stroke-260" stroke="#1E69A0" stroke-width="2" stroke-linecap="round" stroke-linejoin="round" points="28 42 32 42 32 38 28 38">

</polygon>
                <polygon id="Stroke-261" stroke="#1E69A0" stroke-width="2" stroke-linecap="round" stroke-linejoin="round" points="28 34 32 34 32 30 28 30">

</polygon>
                <polygon id="Stroke-262" stroke="#1E69A0" stroke-width="2" stroke-linecap="round" stroke-linejoin="round" points="36 42 40 42 40 38 36 38">

</polygon>
                <polygon id="Stroke-263" stroke="#1E69A0" stroke-width="2" stroke-linecap="round" stroke-linejoin="round" points="36 34 40 34 40 30 36 30">

</polygon>
                <polygon id="Stroke-264" stroke="#1E69A0" stroke-width="2" stroke-linecap="round" stroke-linejoin="round" points="44 42 48 42 48 38 44 38">

</polygon>
                <polygon id="Stroke-265" stroke="#1E69A0" stroke-width="2" stroke-linecap="round" stroke-linejoin="round" points="44 50 48 50 48 46 44 46">

</polygon>
                <polygon id="Stroke-266" stroke="#1E69A0" stroke-width="2" stroke-linecap="round" stroke-linejoin="round" points="44 34 48 34 48 30 44 30">

</polygon>
            </g>
        </g>
    </g>
</svg>