<!DOCTYPE svg PUBLIC "-//W3C//DTD SVG 1.1//EN" "http://www.w3.org/Graphics/SVG/1.1/DTD/svg11.dtd">
<!-- Uploaded to: SVG Repo, www.svgrepo.com, Transformed by: SVG Repo Mixer Tools -->
<svg width="800px" height="800px" viewBox="0 0 1024 1024" class="icon" version="1.1" xmlns="http://www.w3.org/2000/svg" fill="#000000">
<g id="SVGRepo_bgCarrier" stroke-width="0"/>
<g id="SVGRepo_tracerCarrier" stroke-linecap="round" stroke-linejoin="round"/>
<g id="SVGRepo_iconCarrier">
<path d="M851.770202 330.529637h-58.858048V318.759051c0-42.146192-34.274561-76.48321-76.48321-76.48321H515.335818c-19.509111 0-60.776809-63.280209-128.282592-63.280209H172.368023c-42.142096 0-76.480138 34.274561-76.480138 76.48321v511.897612c0 41.300462 32.972179 74.858304 73.879469 76.286624 0.585662 0 0.975763 0.263139 1.561425 0.263138h680.441423c42.205577 0 76.546691-34.341114 76.546691-76.549762V407.012847c0-42.145168-34.341114-76.48321-76.546691-76.48321z" fill="#000000"/>
<path d="M188.433807 461.316653v306.775497c0 13.463068-5.26789 24.778025-21.723775 24.91113-14.371254-0.133105-20.874974-11.058985-20.874974-25.626826V255.477818c0-14.634393 11.900619-26.536036 26.531941-26.536035H387.052202c26.079383 0 48.385749 18.210824 68.091446 34.208008 18.340858 14.961012 35.609708 29.073224 60.190123 29.073224h201.093125c14.634393 0 26.536036 11.900619 26.536036 26.536036v11.770586h-176.896667c-40.061561 0-74.272641 54.302782-89.133313 54.302782H264.980498c-42.142096 0.001024-76.546691 34.274561-76.546691 76.484234z" fill="#79CCBF"/>
<path d="M557.025357 650.052506h-98.107668l182.363192-240.275169 182.229062 240.275169h-99.342474v142.557602H557.025357z" fill="#FFFFFF"/>
<path d="M238.382005 770.629338V461.316653c0-14.631321 11.9641-26.536036 26.599517-26.536036h211.95143c25.203961 0 42.112403-15.607084 58.435183-30.761611 7.805078-7.219415 24.064377-22.242885 31.217239-23.542195h58.858048c-4.618747 2.470635-8.650807 5.917033-11.708128 10.469227l0.912281-1.23583-182.198345 240.246501c-7.675044 9.429984-9.237493 22.763019-3.773018 34.208009 5.594509 11.641576 17.428576 19.186587 30.241477 19.186587h64.742317v110.627737h-289.247604c1.432416-7.676068 3.969603-14.438831 3.969603-23.349704zM878.368695 767.376454c0 14.697874-11.900619 26.602589-26.598493 26.602588h-94.304958V683.351305h66.077463c12.487305 0 23.412162-6.50372 29.136705-17.365095a34.806982 34.806982 0 0 0 3.903051-16.000256c0-6.762763-1.951525-13.463068-5.853553-19.120035l-183.01131-241.217144c-3.642984-4.098613-7.545011-6.959349-11.641577-9.169917h195.695203c14.697874 0 26.598493 11.900619 26.598493 26.536036v360.36156z" fill="#F4CE73"/>
</g>
</svg>